<?xml version="1.0" encoding="UTF-8" standalone="no"?>
<!DOCTYPE svg PUBLIC "-//W3C//DTD SVG 1.1//EN"
 "http://www.w3.org/Graphics/SVG/1.1/DTD/svg11.dtd">
<!-- Generated by graphviz version 2.40.1 (20161225.0304)
 -->
<!-- Title: %3 Pages: 1 -->
<svg width="309pt" height="456pt"
 viewBox="0.00 0.00 308.64 456.00" xmlns="http://www.w3.org/2000/svg" xmlns:xlink="http://www.w3.org/1999/xlink">
<g id="graph0" class="graph" transform="scale(1 1) rotate(0) translate(4 452)">
<title>%3</title>
<polygon fill="#ffffff" stroke="transparent" points="-4,4 -4,-452 304.6377,-452 304.6377,4 -4,4"/>
<!-- 4742129928 -->
<g id="node1" class="node">
<title>4742129928</title>
<polygon fill="#caff70" stroke="#000000" points="209.1145,-20 120.1863,-20 120.1863,0 209.1145,0 209.1145,-20"/>
<text text-anchor="middle" x="164.6504" y="-6.4" font-family="Times,serif" font-size="12.00" fill="#000000">TanhBackward</text>
</g>
<!-- 4742129984 -->
<g id="node2" class="node">
<title>4742129984</title>
<polygon fill="#d3d3d3" stroke="#000000" points="216.6289,-76 112.6719,-76 112.6719,-56 216.6289,-56 216.6289,-76"/>
<text text-anchor="middle" x="164.6504" y="-62.4" font-family="Times,serif" font-size="12.00" fill="#000000">AddmmBackward</text>
</g>
<!-- 4742129984&#45;&gt;4742129928 -->
<g id="edge1" class="edge">
<title>4742129984&#45;&gt;4742129928</title>
<path fill="none" stroke="#000000" d="M164.6504,-55.9883C164.6504,-48.9098 164.6504,-39.1714 164.6504,-30.4779"/>
<polygon fill="#000000" stroke="#000000" points="168.1505,-30.3038 164.6504,-20.3039 161.1505,-30.3039 168.1505,-30.3038"/>
</g>
<!-- 4742130096 -->
<g id="node3" class="node">
<title>4742130096</title>
<polygon fill="#d3d3d3" stroke="#000000" points="103.4516,-132 1.8492,-132 1.8492,-112 103.4516,-112 103.4516,-132"/>
<text text-anchor="middle" x="52.6504" y="-118.4" font-family="Times,serif" font-size="12.00" fill="#000000">ExpandBackward</text>
</g>
<!-- 4742130096&#45;&gt;4742129984 -->
<g id="edge2" class="edge">
<title>4742130096&#45;&gt;4742129984</title>
<path fill="none" stroke="#000000" d="M72.6737,-111.9883C90.085,-103.2827 115.5426,-90.5539 135.2631,-80.6937"/>
<polygon fill="#000000" stroke="#000000" points="137.0438,-83.7165 144.4228,-76.1138 133.9132,-77.4555 137.0438,-83.7165"/>
</g>
<!-- 4742130320 -->
<g id="node4" class="node">
<title>4742130320</title>
<polygon fill="#add8e6" stroke="#000000" points="79.6504,-200 25.6504,-200 25.6504,-168 79.6504,-168 79.6504,-200"/>
<text text-anchor="middle" x="52.6504" y="-186.4" font-family="Times,serif" font-size="12.00" fill="#000000">fc3.bias</text>
<text text-anchor="middle" x="52.6504" y="-174.4" font-family="Times,serif" font-size="12.00" fill="#000000"> (2)</text>
</g>
<!-- 4742130320&#45;&gt;4742130096 -->
<g id="edge3" class="edge">
<title>4742130320&#45;&gt;4742130096</title>
<path fill="none" stroke="#000000" d="M52.6504,-167.7102C52.6504,-160.0144 52.6504,-150.744 52.6504,-142.5691"/>
<polygon fill="#000000" stroke="#000000" points="56.1505,-142.3512 52.6504,-132.3512 49.1505,-142.3513 56.1505,-142.3512"/>
</g>
<!-- 4742130152 -->
<g id="node5" class="node">
<title>4742130152</title>
<polygon fill="#d3d3d3" stroke="#000000" points="208.4595,-132 120.8412,-132 120.8412,-112 208.4595,-112 208.4595,-132"/>
<text text-anchor="middle" x="164.6504" y="-118.4" font-family="Times,serif" font-size="12.00" fill="#000000">ReluBackward</text>
</g>
<!-- 4742130152&#45;&gt;4742129984 -->
<g id="edge4" class="edge">
<title>4742130152&#45;&gt;4742129984</title>
<path fill="none" stroke="#000000" d="M164.6504,-111.9883C164.6504,-104.9098 164.6504,-95.1714 164.6504,-86.4779"/>
<polygon fill="#000000" stroke="#000000" points="168.1505,-86.3038 164.6504,-76.3039 161.1505,-86.3039 168.1505,-86.3038"/>
</g>
<!-- 4742130376 -->
<g id="node6" class="node">
<title>4742130376</title>
<polygon fill="#d3d3d3" stroke="#000000" points="214.6289,-194 110.6719,-194 110.6719,-174 214.6289,-174 214.6289,-194"/>
<text text-anchor="middle" x="162.6504" y="-180.4" font-family="Times,serif" font-size="12.00" fill="#000000">AddmmBackward</text>
</g>
<!-- 4742130376&#45;&gt;4742130152 -->
<g id="edge5" class="edge">
<title>4742130376&#45;&gt;4742130152</title>
<path fill="none" stroke="#000000" d="M162.9806,-173.762C163.2573,-165.185 163.6606,-152.6836 164.0015,-142.1154"/>
<polygon fill="#000000" stroke="#000000" points="167.5019,-142.1552 164.3263,-132.0475 160.5056,-141.9295 167.5019,-142.1552"/>
</g>
<!-- 4742130544 -->
<g id="node7" class="node">
<title>4742130544</title>
<polygon fill="#d3d3d3" stroke="#000000" points="101.4516,-256 -.1508,-256 -.1508,-236 101.4516,-236 101.4516,-256"/>
<text text-anchor="middle" x="50.6504" y="-242.4" font-family="Times,serif" font-size="12.00" fill="#000000">ExpandBackward</text>
</g>
<!-- 4742130544&#45;&gt;4742130376 -->
<g id="edge6" class="edge">
<title>4742130544&#45;&gt;4742130376</title>
<path fill="none" stroke="#000000" d="M69.1449,-235.762C87.2484,-225.7404 115.03,-210.3613 135.6111,-198.9682"/>
<polygon fill="#000000" stroke="#000000" points="137.4462,-201.9529 144.5,-194.0475 134.0559,-195.8286 137.4462,-201.9529"/>
</g>
<!-- 4742130768 -->
<g id="node8" class="node">
<title>4742130768</title>
<polygon fill="#add8e6" stroke="#000000" points="77.6504,-324 23.6504,-324 23.6504,-292 77.6504,-292 77.6504,-324"/>
<text text-anchor="middle" x="50.6504" y="-310.4" font-family="Times,serif" font-size="12.00" fill="#000000">fc2.bias</text>
<text text-anchor="middle" x="50.6504" y="-298.4" font-family="Times,serif" font-size="12.00" fill="#000000"> (64)</text>
</g>
<!-- 4742130768&#45;&gt;4742130544 -->
<g id="edge7" class="edge">
<title>4742130768&#45;&gt;4742130544</title>
<path fill="none" stroke="#000000" d="M50.6504,-291.7102C50.6504,-284.0144 50.6504,-274.744 50.6504,-266.5691"/>
<polygon fill="#000000" stroke="#000000" points="54.1505,-266.3512 50.6504,-256.3512 47.1505,-266.3513 54.1505,-266.3512"/>
</g>
<!-- 4742130600 -->
<g id="node9" class="node">
<title>4742130600</title>
<polygon fill="#d3d3d3" stroke="#000000" points="206.4595,-256 118.8412,-256 118.8412,-236 206.4595,-236 206.4595,-256"/>
<text text-anchor="middle" x="162.6504" y="-242.4" font-family="Times,serif" font-size="12.00" fill="#000000">ReluBackward</text>
</g>
<!-- 4742130600&#45;&gt;4742130376 -->
<g id="edge8" class="edge">
<title>4742130600&#45;&gt;4742130376</title>
<path fill="none" stroke="#000000" d="M162.6504,-235.762C162.6504,-227.185 162.6504,-214.6836 162.6504,-204.1154"/>
<polygon fill="#000000" stroke="#000000" points="166.1505,-204.0475 162.6504,-194.0475 159.1505,-204.0476 166.1505,-204.0475"/>
</g>
<!-- 4742130824 -->
<g id="node10" class="node">
<title>4742130824</title>
<polygon fill="#d3d3d3" stroke="#000000" points="212.6289,-318 108.6719,-318 108.6719,-298 212.6289,-298 212.6289,-318"/>
<text text-anchor="middle" x="160.6504" y="-304.4" font-family="Times,serif" font-size="12.00" fill="#000000">AddmmBackward</text>
</g>
<!-- 4742130824&#45;&gt;4742130600 -->
<g id="edge9" class="edge">
<title>4742130824&#45;&gt;4742130600</title>
<path fill="none" stroke="#000000" d="M160.9806,-297.762C161.2573,-289.185 161.6606,-276.6836 162.0015,-266.1154"/>
<polygon fill="#000000" stroke="#000000" points="165.5019,-266.1552 162.3263,-256.0475 158.5056,-265.9295 165.5019,-266.1552"/>
</g>
<!-- 4742130936 -->
<g id="node11" class="node">
<title>4742130936</title>
<polygon fill="#d3d3d3" stroke="#000000" points="158.4516,-380 56.8492,-380 56.8492,-360 158.4516,-360 158.4516,-380"/>
<text text-anchor="middle" x="107.6504" y="-366.4" font-family="Times,serif" font-size="12.00" fill="#000000">ExpandBackward</text>
</g>
<!-- 4742130936&#45;&gt;4742130824 -->
<g id="edge10" class="edge">
<title>4742130936&#45;&gt;4742130824</title>
<path fill="none" stroke="#000000" d="M116.4023,-359.762C124.2745,-350.553 136.0139,-336.82 145.4231,-325.8131"/>
<polygon fill="#000000" stroke="#000000" points="148.224,-327.923 152.0614,-318.0475 142.9031,-323.3745 148.224,-327.923"/>
</g>
<!-- 4742131104 -->
<g id="node12" class="node">
<title>4742131104</title>
<polygon fill="#add8e6" stroke="#000000" points="134.6504,-448 80.6504,-448 80.6504,-416 134.6504,-416 134.6504,-448"/>
<text text-anchor="middle" x="107.6504" y="-434.4" font-family="Times,serif" font-size="12.00" fill="#000000">fc1.bias</text>
<text text-anchor="middle" x="107.6504" y="-422.4" font-family="Times,serif" font-size="12.00" fill="#000000"> (64)</text>
</g>
<!-- 4742131104&#45;&gt;4742130936 -->
<g id="edge11" class="edge">
<title>4742131104&#45;&gt;4742130936</title>
<path fill="none" stroke="#000000" d="M107.6504,-415.7102C107.6504,-408.0144 107.6504,-398.744 107.6504,-390.5691"/>
<polygon fill="#000000" stroke="#000000" points="111.1505,-390.3512 107.6504,-380.3512 104.1505,-390.3513 111.1505,-390.3512"/>
</g>
<!-- 4742130992 -->
<g id="node13" class="node">
<title>4742130992</title>
<polygon fill="#d3d3d3" stroke="#000000" points="248.625,-380 176.6758,-380 176.6758,-360 248.625,-360 248.625,-380"/>
<text text-anchor="middle" x="212.6504" y="-366.4" font-family="Times,serif" font-size="12.00" fill="#000000">TBackward</text>
</g>
<!-- 4742130992&#45;&gt;4742130824 -->
<g id="edge12" class="edge">
<title>4742130992&#45;&gt;4742130824</title>
<path fill="none" stroke="#000000" d="M204.0636,-359.762C196.34,-350.553 184.822,-336.82 175.5904,-325.8131"/>
<polygon fill="#000000" stroke="#000000" points="178.1852,-323.4603 169.0774,-318.0475 172.8218,-327.9586 178.1852,-323.4603"/>
</g>
<!-- 4742131160 -->
<g id="node14" class="node">
<title>4742131160</title>
<polygon fill="#add8e6" stroke="#000000" points="246.1328,-448 179.168,-448 179.168,-416 246.1328,-416 246.1328,-448"/>
<text text-anchor="middle" x="212.6504" y="-434.4" font-family="Times,serif" font-size="12.00" fill="#000000">fc1.weight</text>
<text text-anchor="middle" x="212.6504" y="-422.4" font-family="Times,serif" font-size="12.00" fill="#000000"> (64, 24)</text>
</g>
<!-- 4742131160&#45;&gt;4742130992 -->
<g id="edge13" class="edge">
<title>4742131160&#45;&gt;4742130992</title>
<path fill="none" stroke="#000000" d="M212.6504,-415.7102C212.6504,-408.0144 212.6504,-398.744 212.6504,-390.5691"/>
<polygon fill="#000000" stroke="#000000" points="216.1505,-390.3512 212.6504,-380.3512 209.1505,-390.3513 216.1505,-390.3512"/>
</g>
<!-- 4742130656 -->
<g id="node15" class="node">
<title>4742130656</title>
<polygon fill="#d3d3d3" stroke="#000000" points="298.625,-256 226.6758,-256 226.6758,-236 298.625,-236 298.625,-256"/>
<text text-anchor="middle" x="262.6504" y="-242.4" font-family="Times,serif" font-size="12.00" fill="#000000">TBackward</text>
</g>
<!-- 4742130656&#45;&gt;4742130376 -->
<g id="edge14" class="edge">
<title>4742130656&#45;&gt;4742130376</title>
<path fill="none" stroke="#000000" d="M246.1374,-235.762C230.1921,-225.8758 205.8375,-210.776 187.5411,-199.4322"/>
<polygon fill="#000000" stroke="#000000" points="189.1994,-196.3423 178.8561,-194.0475 185.5108,-202.2916 189.1994,-196.3423"/>
</g>
<!-- 4742130880 -->
<g id="node16" class="node">
<title>4742130880</title>
<polygon fill="#add8e6" stroke="#000000" points="297.1328,-324 230.168,-324 230.168,-292 297.1328,-292 297.1328,-324"/>
<text text-anchor="middle" x="263.6504" y="-310.4" font-family="Times,serif" font-size="12.00" fill="#000000">fc2.weight</text>
<text text-anchor="middle" x="263.6504" y="-298.4" font-family="Times,serif" font-size="12.00" fill="#000000"> (64, 64)</text>
</g>
<!-- 4742130880&#45;&gt;4742130656 -->
<g id="edge15" class="edge">
<title>4742130880&#45;&gt;4742130656</title>
<path fill="none" stroke="#000000" d="M263.3877,-291.7102C263.2635,-284.0144 263.114,-274.744 262.9821,-266.5691"/>
<polygon fill="#000000" stroke="#000000" points="266.4783,-266.2934 262.8173,-256.3512 259.4792,-266.4064 266.4783,-266.2934"/>
</g>
<!-- 4742130208 -->
<g id="node17" class="node">
<title>4742130208</title>
<polygon fill="#d3d3d3" stroke="#000000" points="300.625,-132 228.6758,-132 228.6758,-112 300.625,-112 300.625,-132"/>
<text text-anchor="middle" x="264.6504" y="-118.4" font-family="Times,serif" font-size="12.00" fill="#000000">TBackward</text>
</g>
<!-- 4742130208&#45;&gt;4742129984 -->
<g id="edge16" class="edge">
<title>4742130208&#45;&gt;4742129984</title>
<path fill="none" stroke="#000000" d="M246.7724,-111.9883C231.5093,-103.441 209.3208,-91.0155 191.8545,-81.2343"/>
<polygon fill="#000000" stroke="#000000" points="193.146,-77.9461 182.7108,-76.1138 189.7257,-84.0537 193.146,-77.9461"/>
</g>
<!-- 4742130432 -->
<g id="node18" class="node">
<title>4742130432</title>
<polygon fill="#add8e6" stroke="#000000" points="299.1328,-200 232.168,-200 232.168,-168 299.1328,-168 299.1328,-200"/>
<text text-anchor="middle" x="265.6504" y="-186.4" font-family="Times,serif" font-size="12.00" fill="#000000">fc3.weight</text>
<text text-anchor="middle" x="265.6504" y="-174.4" font-family="Times,serif" font-size="12.00" fill="#000000"> (2, 64)</text>
</g>
<!-- 4742130432&#45;&gt;4742130208 -->
<g id="edge17" class="edge">
<title>4742130432&#45;&gt;4742130208</title>
<path fill="none" stroke="#000000" d="M265.3877,-167.7102C265.2635,-160.0144 265.114,-150.744 264.9821,-142.5691"/>
<polygon fill="#000000" stroke="#000000" points="268.4783,-142.2934 264.8173,-132.3512 261.4792,-142.4064 268.4783,-142.2934"/>
</g>
</g>
</svg>
