<?xml version="1.0" encoding="UTF-8" standalone="no"?>
<!DOCTYPE svg PUBLIC "-//W3C//DTD SVG 1.1//EN"
 "http://www.w3.org/Graphics/SVG/1.1/DTD/svg11.dtd">
<!-- Generated by graphviz version 2.40.1 (20161225.0304)
 -->
<!-- Title: %3 Pages: 1 -->
<svg width="307pt" height="456pt"
 viewBox="0.00 0.00 306.64 456.00" xmlns="http://www.w3.org/2000/svg" xmlns:xlink="http://www.w3.org/1999/xlink">
<g id="graph0" class="graph" transform="scale(1 1) rotate(0) translate(4 452)">
<title>%3</title>
<polygon fill="#ffffff" stroke="transparent" points="-4,4 -4,-452 302.6377,-452 302.6377,4 -4,4"/>
<!-- 4742229128 -->
<g id="node1" class="node">
<title>4742229128</title>
<polygon fill="#caff70" stroke="#000000" points="214.6289,-20 110.6719,-20 110.6719,0 214.6289,0 214.6289,-20"/>
<text text-anchor="middle" x="162.6504" y="-6.4" font-family="Times,serif" font-size="12.00" fill="#000000">AddmmBackward</text>
</g>
<!-- 4742226384 -->
<g id="node2" class="node">
<title>4742226384</title>
<polygon fill="#d3d3d3" stroke="#000000" points="101.4516,-76 -.1508,-76 -.1508,-56 101.4516,-56 101.4516,-76"/>
<text text-anchor="middle" x="50.6504" y="-62.4" font-family="Times,serif" font-size="12.00" fill="#000000">ExpandBackward</text>
</g>
<!-- 4742226384&#45;&gt;4742229128 -->
<g id="edge1" class="edge">
<title>4742226384&#45;&gt;4742229128</title>
<path fill="none" stroke="#000000" d="M70.6737,-55.9883C88.085,-47.2827 113.5426,-34.5539 133.2631,-24.6937"/>
<polygon fill="#000000" stroke="#000000" points="135.0438,-27.7165 142.4228,-20.1138 131.9132,-21.4555 135.0438,-27.7165"/>
</g>
<!-- 4742227392 -->
<g id="node3" class="node">
<title>4742227392</title>
<polygon fill="#add8e6" stroke="#000000" points="77.6504,-144 23.6504,-144 23.6504,-112 77.6504,-112 77.6504,-144"/>
<text text-anchor="middle" x="50.6504" y="-130.4" font-family="Times,serif" font-size="12.00" fill="#000000">fc3.bias</text>
<text text-anchor="middle" x="50.6504" y="-118.4" font-family="Times,serif" font-size="12.00" fill="#000000"> (1)</text>
</g>
<!-- 4742227392&#45;&gt;4742226384 -->
<g id="edge2" class="edge">
<title>4742227392&#45;&gt;4742226384</title>
<path fill="none" stroke="#000000" d="M50.6504,-111.7102C50.6504,-104.0144 50.6504,-94.744 50.6504,-86.5691"/>
<polygon fill="#000000" stroke="#000000" points="54.1505,-86.3512 50.6504,-76.3512 47.1505,-86.3513 54.1505,-86.3512"/>
</g>
<!-- 4742227672 -->
<g id="node4" class="node">
<title>4742227672</title>
<polygon fill="#d3d3d3" stroke="#000000" points="206.4595,-76 118.8412,-76 118.8412,-56 206.4595,-56 206.4595,-76"/>
<text text-anchor="middle" x="162.6504" y="-62.4" font-family="Times,serif" font-size="12.00" fill="#000000">ReluBackward</text>
</g>
<!-- 4742227672&#45;&gt;4742229128 -->
<g id="edge3" class="edge">
<title>4742227672&#45;&gt;4742229128</title>
<path fill="none" stroke="#000000" d="M162.6504,-55.9883C162.6504,-48.9098 162.6504,-39.1714 162.6504,-30.4779"/>
<polygon fill="#000000" stroke="#000000" points="166.1505,-30.3038 162.6504,-20.3039 159.1505,-30.3039 166.1505,-30.3038"/>
</g>
<!-- 4742229688 -->
<g id="node5" class="node">
<title>4742229688</title>
<polygon fill="#d3d3d3" stroke="#000000" points="212.6289,-138 108.6719,-138 108.6719,-118 212.6289,-118 212.6289,-138"/>
<text text-anchor="middle" x="160.6504" y="-124.4" font-family="Times,serif" font-size="12.00" fill="#000000">AddmmBackward</text>
</g>
<!-- 4742229688&#45;&gt;4742227672 -->
<g id="edge4" class="edge">
<title>4742229688&#45;&gt;4742227672</title>
<path fill="none" stroke="#000000" d="M160.9806,-117.762C161.2573,-109.185 161.6606,-96.6836 162.0015,-86.1154"/>
<polygon fill="#000000" stroke="#000000" points="165.5019,-86.1552 162.3263,-76.0475 158.5056,-85.9295 165.5019,-86.1552"/>
</g>
<!-- 4742105632 -->
<g id="node6" class="node">
<title>4742105632</title>
<polygon fill="#d3d3d3" stroke="#000000" points="102.4516,-200 .8492,-200 .8492,-180 102.4516,-180 102.4516,-200"/>
<text text-anchor="middle" x="51.6504" y="-186.4" font-family="Times,serif" font-size="12.00" fill="#000000">ExpandBackward</text>
</g>
<!-- 4742105632&#45;&gt;4742229688 -->
<g id="edge5" class="edge">
<title>4742105632&#45;&gt;4742229688</title>
<path fill="none" stroke="#000000" d="M69.6495,-179.762C87.1887,-169.7855 114.0621,-154.4997 134.0643,-143.1224"/>
<polygon fill="#000000" stroke="#000000" points="136.0244,-146.0341 142.9862,-138.0475 132.5634,-139.9495 136.0244,-146.0341"/>
</g>
<!-- 4742106584 -->
<g id="node7" class="node">
<title>4742106584</title>
<polygon fill="#add8e6" stroke="#000000" points="78.6504,-268 24.6504,-268 24.6504,-236 78.6504,-236 78.6504,-268"/>
<text text-anchor="middle" x="51.6504" y="-254.4" font-family="Times,serif" font-size="12.00" fill="#000000">fc2.bias</text>
<text text-anchor="middle" x="51.6504" y="-242.4" font-family="Times,serif" font-size="12.00" fill="#000000"> (64)</text>
</g>
<!-- 4742106584&#45;&gt;4742105632 -->
<g id="edge6" class="edge">
<title>4742106584&#45;&gt;4742105632</title>
<path fill="none" stroke="#000000" d="M51.6504,-235.7102C51.6504,-228.0144 51.6504,-218.744 51.6504,-210.5691"/>
<polygon fill="#000000" stroke="#000000" points="55.1505,-210.3512 51.6504,-200.3512 48.1505,-210.3513 55.1505,-210.3512"/>
</g>
<!-- 4742105240 -->
<g id="node8" class="node">
<title>4742105240</title>
<polygon fill="#d3d3d3" stroke="#000000" points="201.4596,-200 119.8412,-200 119.8412,-180 201.4596,-180 201.4596,-200"/>
<text text-anchor="middle" x="160.6504" y="-186.4" font-family="Times,serif" font-size="12.00" fill="#000000">CatBackward</text>
</g>
<!-- 4742105240&#45;&gt;4742229688 -->
<g id="edge7" class="edge">
<title>4742105240&#45;&gt;4742229688</title>
<path fill="none" stroke="#000000" d="M160.6504,-179.762C160.6504,-171.185 160.6504,-158.6836 160.6504,-148.1154"/>
<polygon fill="#000000" stroke="#000000" points="164.1505,-148.0475 160.6504,-138.0475 157.1505,-148.0476 164.1505,-148.0475"/>
</g>
<!-- 4742107088 -->
<g id="node9" class="node">
<title>4742107088</title>
<polygon fill="#d3d3d3" stroke="#000000" points="204.4595,-262 116.8412,-262 116.8412,-242 204.4595,-242 204.4595,-262"/>
<text text-anchor="middle" x="160.6504" y="-248.4" font-family="Times,serif" font-size="12.00" fill="#000000">ReluBackward</text>
</g>
<!-- 4742107088&#45;&gt;4742105240 -->
<g id="edge8" class="edge">
<title>4742107088&#45;&gt;4742105240</title>
<path fill="none" stroke="#000000" d="M160.6504,-241.762C160.6504,-233.185 160.6504,-220.6836 160.6504,-210.1154"/>
<polygon fill="#000000" stroke="#000000" points="164.1505,-210.0475 160.6504,-200.0475 157.1505,-210.0476 164.1505,-210.0475"/>
</g>
<!-- 4742104456 -->
<g id="node10" class="node">
<title>4742104456</title>
<polygon fill="#d3d3d3" stroke="#000000" points="212.6289,-324 108.6719,-324 108.6719,-304 212.6289,-304 212.6289,-324"/>
<text text-anchor="middle" x="160.6504" y="-310.4" font-family="Times,serif" font-size="12.00" fill="#000000">AddmmBackward</text>
</g>
<!-- 4742104456&#45;&gt;4742107088 -->
<g id="edge9" class="edge">
<title>4742104456&#45;&gt;4742107088</title>
<path fill="none" stroke="#000000" d="M160.6504,-303.762C160.6504,-295.185 160.6504,-282.6836 160.6504,-272.1154"/>
<polygon fill="#000000" stroke="#000000" points="164.1505,-272.0475 160.6504,-262.0475 157.1505,-272.0476 164.1505,-272.0475"/>
</g>
<!-- 4742103952 -->
<g id="node11" class="node">
<title>4742103952</title>
<polygon fill="#d3d3d3" stroke="#000000" points="159.4516,-380 57.8492,-380 57.8492,-360 159.4516,-360 159.4516,-380"/>
<text text-anchor="middle" x="108.6504" y="-366.4" font-family="Times,serif" font-size="12.00" fill="#000000">ExpandBackward</text>
</g>
<!-- 4742103952&#45;&gt;4742104456 -->
<g id="edge10" class="edge">
<title>4742103952&#45;&gt;4742104456</title>
<path fill="none" stroke="#000000" d="M117.9469,-359.9883C125.1772,-352.2019 135.3959,-341.1971 144.0244,-331.9049"/>
<polygon fill="#000000" stroke="#000000" points="146.8428,-334.0134 151.0825,-324.3039 141.7132,-329.2502 146.8428,-334.0134"/>
</g>
<!-- 4742106360 -->
<g id="node12" class="node">
<title>4742106360</title>
<polygon fill="#add8e6" stroke="#000000" points="135.6504,-448 81.6504,-448 81.6504,-416 135.6504,-416 135.6504,-448"/>
<text text-anchor="middle" x="108.6504" y="-434.4" font-family="Times,serif" font-size="12.00" fill="#000000">fc1.bias</text>
<text text-anchor="middle" x="108.6504" y="-422.4" font-family="Times,serif" font-size="12.00" fill="#000000"> (64)</text>
</g>
<!-- 4742106360&#45;&gt;4742103952 -->
<g id="edge11" class="edge">
<title>4742106360&#45;&gt;4742103952</title>
<path fill="none" stroke="#000000" d="M108.6504,-415.7102C108.6504,-408.0144 108.6504,-398.744 108.6504,-390.5691"/>
<polygon fill="#000000" stroke="#000000" points="112.1505,-390.3512 108.6504,-380.3512 105.1505,-390.3513 112.1505,-390.3512"/>
</g>
<!-- 4742106864 -->
<g id="node13" class="node">
<title>4742106864</title>
<polygon fill="#d3d3d3" stroke="#000000" points="249.625,-380 177.6758,-380 177.6758,-360 249.625,-360 249.625,-380"/>
<text text-anchor="middle" x="213.6504" y="-366.4" font-family="Times,serif" font-size="12.00" fill="#000000">TBackward</text>
</g>
<!-- 4742106864&#45;&gt;4742104456 -->
<g id="edge12" class="edge">
<title>4742106864&#45;&gt;4742104456</title>
<path fill="none" stroke="#000000" d="M204.1751,-359.9883C196.7314,-352.1233 186.1798,-340.9745 177.3301,-331.6239"/>
<polygon fill="#000000" stroke="#000000" points="179.8182,-329.161 170.4023,-324.3039 174.7341,-333.9727 179.8182,-329.161"/>
</g>
<!-- 4742106248 -->
<g id="node14" class="node">
<title>4742106248</title>
<polygon fill="#add8e6" stroke="#000000" points="247.1328,-448 180.168,-448 180.168,-416 247.1328,-416 247.1328,-448"/>
<text text-anchor="middle" x="213.6504" y="-434.4" font-family="Times,serif" font-size="12.00" fill="#000000">fc1.weight</text>
<text text-anchor="middle" x="213.6504" y="-422.4" font-family="Times,serif" font-size="12.00" fill="#000000"> (64, 24)</text>
</g>
<!-- 4742106248&#45;&gt;4742106864 -->
<g id="edge13" class="edge">
<title>4742106248&#45;&gt;4742106864</title>
<path fill="none" stroke="#000000" d="M213.6504,-415.7102C213.6504,-408.0144 213.6504,-398.744 213.6504,-390.5691"/>
<polygon fill="#000000" stroke="#000000" points="217.1505,-390.3512 213.6504,-380.3512 210.1505,-390.3513 217.1505,-390.3512"/>
</g>
<!-- 4742103224 -->
<g id="node15" class="node">
<title>4742103224</title>
<polygon fill="#d3d3d3" stroke="#000000" points="291.625,-200 219.6758,-200 219.6758,-180 291.625,-180 291.625,-200"/>
<text text-anchor="middle" x="255.6504" y="-186.4" font-family="Times,serif" font-size="12.00" fill="#000000">TBackward</text>
</g>
<!-- 4742103224&#45;&gt;4742229688 -->
<g id="edge14" class="edge">
<title>4742103224&#45;&gt;4742229688</title>
<path fill="none" stroke="#000000" d="M239.9631,-179.762C224.8841,-169.921 201.8892,-154.9138 184.535,-143.5878"/>
<polygon fill="#000000" stroke="#000000" points="186.3331,-140.5819 176.0458,-138.0475 182.5073,-146.444 186.3331,-140.5819"/>
</g>
<!-- 4742105184 -->
<g id="node16" class="node">
<title>4742105184</title>
<polygon fill="#add8e6" stroke="#000000" points="289.1328,-268 222.168,-268 222.168,-236 289.1328,-236 289.1328,-268"/>
<text text-anchor="middle" x="255.6504" y="-254.4" font-family="Times,serif" font-size="12.00" fill="#000000">fc2.weight</text>
<text text-anchor="middle" x="255.6504" y="-242.4" font-family="Times,serif" font-size="12.00" fill="#000000"> (64, 66)</text>
</g>
<!-- 4742105184&#45;&gt;4742103224 -->
<g id="edge15" class="edge">
<title>4742105184&#45;&gt;4742103224</title>
<path fill="none" stroke="#000000" d="M255.6504,-235.7102C255.6504,-228.0144 255.6504,-218.744 255.6504,-210.5691"/>
<polygon fill="#000000" stroke="#000000" points="259.1505,-210.3512 255.6504,-200.3512 252.1505,-210.3513 259.1505,-210.3512"/>
</g>
<!-- 4742229408 -->
<g id="node17" class="node">
<title>4742229408</title>
<polygon fill="#d3d3d3" stroke="#000000" points="298.625,-76 226.6758,-76 226.6758,-56 298.625,-56 298.625,-76"/>
<text text-anchor="middle" x="262.6504" y="-62.4" font-family="Times,serif" font-size="12.00" fill="#000000">TBackward</text>
</g>
<!-- 4742229408&#45;&gt;4742229128 -->
<g id="edge16" class="edge">
<title>4742229408&#45;&gt;4742229128</title>
<path fill="none" stroke="#000000" d="M244.7724,-55.9883C229.5093,-47.441 207.3208,-35.0155 189.8545,-25.2343"/>
<polygon fill="#000000" stroke="#000000" points="191.146,-21.9461 180.7108,-20.1138 187.7257,-28.0537 191.146,-21.9461"/>
</g>
<!-- 4742229520 -->
<g id="node18" class="node">
<title>4742229520</title>
<polygon fill="#add8e6" stroke="#000000" points="297.1328,-144 230.168,-144 230.168,-112 297.1328,-112 297.1328,-144"/>
<text text-anchor="middle" x="263.6504" y="-130.4" font-family="Times,serif" font-size="12.00" fill="#000000">fc3.weight</text>
<text text-anchor="middle" x="263.6504" y="-118.4" font-family="Times,serif" font-size="12.00" fill="#000000"> (1, 64)</text>
</g>
<!-- 4742229520&#45;&gt;4742229408 -->
<g id="edge17" class="edge">
<title>4742229520&#45;&gt;4742229408</title>
<path fill="none" stroke="#000000" d="M263.3877,-111.7102C263.2635,-104.0144 263.114,-94.744 262.9821,-86.5691"/>
<polygon fill="#000000" stroke="#000000" points="266.4783,-86.2934 262.8173,-76.3512 259.4792,-86.4064 266.4783,-86.2934"/>
</g>
</g>
</svg>
