<?xml version="1.0" encoding="UTF-8" standalone="no"?>
<!DOCTYPE svg PUBLIC "-//W3C//DTD SVG 1.1//EN"
 "http://www.w3.org/Graphics/SVG/1.1/DTD/svg11.dtd">
<!-- Generated by graphviz version 2.40.1 (20161225.0304)
 -->
<!-- Title: %3 Pages: 1 -->
<svg width="364pt" height="456pt"
 viewBox="0.00 0.00 363.64 456.00" xmlns="http://www.w3.org/2000/svg" xmlns:xlink="http://www.w3.org/1999/xlink">
<g id="graph0" class="graph" transform="scale(1 1) rotate(0) translate(4 452)">
<title>%3</title>
<polygon fill="#ffffff" stroke="transparent" points="-4,4 -4,-452 359.6377,-452 359.6377,4 -4,4"/>
<!-- 4508984936 -->
<g id="node1" class="node">
<title>4508984936</title>
<polygon fill="#caff70" stroke="#000000" points="237.1145,-20 148.1863,-20 148.1863,0 237.1145,0 237.1145,-20"/>
<text text-anchor="middle" x="192.6504" y="-6.4" font-family="Times,serif" font-size="12.00" fill="#000000">TanhBackward</text>
</g>
<!-- 4508986672 -->
<g id="node2" class="node">
<title>4508986672</title>
<polygon fill="#d3d3d3" stroke="#000000" points="244.6289,-76 140.6719,-76 140.6719,-56 244.6289,-56 244.6289,-76"/>
<text text-anchor="middle" x="192.6504" y="-62.4" font-family="Times,serif" font-size="12.00" fill="#000000">AddmmBackward</text>
</g>
<!-- 4508986672&#45;&gt;4508984936 -->
<g id="edge1" class="edge">
<title>4508986672&#45;&gt;4508984936</title>
<path fill="none" stroke="#000000" d="M192.6504,-55.9883C192.6504,-48.9098 192.6504,-39.1714 192.6504,-30.4779"/>
<polygon fill="#000000" stroke="#000000" points="196.1505,-30.3038 192.6504,-20.3039 189.1505,-30.3039 196.1505,-30.3038"/>
</g>
<!-- 4508986840 -->
<g id="node3" class="node">
<title>4508986840</title>
<polygon fill="#d3d3d3" stroke="#000000" points="113.4516,-132 11.8492,-132 11.8492,-112 113.4516,-112 113.4516,-132"/>
<text text-anchor="middle" x="62.6504" y="-118.4" font-family="Times,serif" font-size="12.00" fill="#000000">ExpandBackward</text>
</g>
<!-- 4508986840&#45;&gt;4508986672 -->
<g id="edge2" class="edge">
<title>4508986840&#45;&gt;4508986672</title>
<path fill="none" stroke="#000000" d="M85.8918,-111.9883C106.4687,-103.1244 136.7278,-90.0897 159.7819,-80.1587"/>
<polygon fill="#000000" stroke="#000000" points="161.3725,-83.2846 169.1719,-76.1138 158.6031,-76.8557 161.3725,-83.2846"/>
</g>
<!-- 4508985384 -->
<g id="node4" class="node">
<title>4508985384</title>
<polygon fill="#add8e6" stroke="#000000" points="89.6504,-200 35.6504,-200 35.6504,-168 89.6504,-168 89.6504,-200"/>
<text text-anchor="middle" x="62.6504" y="-186.4" font-family="Times,serif" font-size="12.00" fill="#000000">fc3.bias</text>
<text text-anchor="middle" x="62.6504" y="-174.4" font-family="Times,serif" font-size="12.00" fill="#000000"> (4)</text>
</g>
<!-- 4508985384&#45;&gt;4508986840 -->
<g id="edge3" class="edge">
<title>4508985384&#45;&gt;4508986840</title>
<path fill="none" stroke="#000000" d="M62.6504,-167.7102C62.6504,-160.0144 62.6504,-150.744 62.6504,-142.5691"/>
<polygon fill="#000000" stroke="#000000" points="66.1505,-142.3512 62.6504,-132.3512 59.1505,-142.3513 66.1505,-142.3512"/>
</g>
<!-- 4508985664 -->
<g id="node5" class="node">
<title>4508985664</title>
<polygon fill="#d3d3d3" stroke="#000000" points="254.4418,-132 130.859,-132 130.859,-112 254.4418,-112 254.4418,-132"/>
<text text-anchor="middle" x="192.6504" y="-118.4" font-family="Times,serif" font-size="12.00" fill="#000000">LeakyReluBackward0</text>
</g>
<!-- 4508985664&#45;&gt;4508986672 -->
<g id="edge4" class="edge">
<title>4508985664&#45;&gt;4508986672</title>
<path fill="none" stroke="#000000" d="M192.6504,-111.9883C192.6504,-104.9098 192.6504,-95.1714 192.6504,-86.4779"/>
<polygon fill="#000000" stroke="#000000" points="196.1505,-86.3038 192.6504,-76.3039 189.1505,-86.3039 196.1505,-86.3038"/>
</g>
<!-- 4508986112 -->
<g id="node6" class="node">
<title>4508986112</title>
<polygon fill="#d3d3d3" stroke="#000000" points="244.6289,-194 140.6719,-194 140.6719,-174 244.6289,-174 244.6289,-194"/>
<text text-anchor="middle" x="192.6504" y="-180.4" font-family="Times,serif" font-size="12.00" fill="#000000">AddmmBackward</text>
</g>
<!-- 4508986112&#45;&gt;4508985664 -->
<g id="edge5" class="edge">
<title>4508986112&#45;&gt;4508985664</title>
<path fill="none" stroke="#000000" d="M192.6504,-173.762C192.6504,-165.185 192.6504,-152.6836 192.6504,-142.1154"/>
<polygon fill="#000000" stroke="#000000" points="196.1505,-142.0475 192.6504,-132.0475 189.1505,-142.0476 196.1505,-142.0475"/>
</g>
<!-- 4508983480 -->
<g id="node7" class="node">
<title>4508983480</title>
<polygon fill="#d3d3d3" stroke="#000000" points="113.4516,-256 11.8492,-256 11.8492,-236 113.4516,-236 113.4516,-256"/>
<text text-anchor="middle" x="62.6504" y="-242.4" font-family="Times,serif" font-size="12.00" fill="#000000">ExpandBackward</text>
</g>
<!-- 4508983480&#45;&gt;4508986112 -->
<g id="edge6" class="edge">
<title>4508983480&#45;&gt;4508986112</title>
<path fill="none" stroke="#000000" d="M83.8265,-235.9006C105.1678,-225.7224 138.307,-209.9176 162.4108,-198.4219"/>
<polygon fill="#000000" stroke="#000000" points="163.964,-201.5589 171.4834,-194.095 160.9507,-195.2407 163.964,-201.5589"/>
</g>
<!-- 4661422456 -->
<g id="node8" class="node">
<title>4661422456</title>
<polygon fill="#add8e6" stroke="#000000" points="89.6504,-324 35.6504,-324 35.6504,-292 89.6504,-292 89.6504,-324"/>
<text text-anchor="middle" x="62.6504" y="-310.4" font-family="Times,serif" font-size="12.00" fill="#000000">fc2.bias</text>
<text text-anchor="middle" x="62.6504" y="-298.4" font-family="Times,serif" font-size="12.00" fill="#000000"> (128)</text>
</g>
<!-- 4661422456&#45;&gt;4508983480 -->
<g id="edge7" class="edge">
<title>4661422456&#45;&gt;4508983480</title>
<path fill="none" stroke="#000000" d="M62.6504,-291.7102C62.6504,-284.0144 62.6504,-274.744 62.6504,-266.5691"/>
<polygon fill="#000000" stroke="#000000" points="66.1505,-266.3512 62.6504,-256.3512 59.1505,-266.3513 66.1505,-266.3512"/>
</g>
<!-- 4508984544 -->
<g id="node9" class="node">
<title>4508984544</title>
<polygon fill="#d3d3d3" stroke="#000000" points="254.4418,-256 130.859,-256 130.859,-236 254.4418,-236 254.4418,-256"/>
<text text-anchor="middle" x="192.6504" y="-242.4" font-family="Times,serif" font-size="12.00" fill="#000000">LeakyReluBackward0</text>
</g>
<!-- 4508984544&#45;&gt;4508986112 -->
<g id="edge8" class="edge">
<title>4508984544&#45;&gt;4508986112</title>
<path fill="none" stroke="#000000" d="M192.6504,-235.762C192.6504,-227.185 192.6504,-214.6836 192.6504,-204.1154"/>
<polygon fill="#000000" stroke="#000000" points="196.1505,-204.0475 192.6504,-194.0475 189.1505,-204.0476 196.1505,-204.0475"/>
</g>
<!-- 4661420384 -->
<g id="node10" class="node">
<title>4661420384</title>
<polygon fill="#d3d3d3" stroke="#000000" points="244.6289,-318 140.6719,-318 140.6719,-298 244.6289,-298 244.6289,-318"/>
<text text-anchor="middle" x="192.6504" y="-304.4" font-family="Times,serif" font-size="12.00" fill="#000000">AddmmBackward</text>
</g>
<!-- 4661420384&#45;&gt;4508984544 -->
<g id="edge9" class="edge">
<title>4661420384&#45;&gt;4508984544</title>
<path fill="none" stroke="#000000" d="M192.6504,-297.762C192.6504,-289.185 192.6504,-276.6836 192.6504,-266.1154"/>
<polygon fill="#000000" stroke="#000000" points="196.1505,-266.0475 192.6504,-256.0475 189.1505,-266.0476 196.1505,-266.0475"/>
</g>
<!-- 4661424024 -->
<g id="node11" class="node">
<title>4661424024</title>
<polygon fill="#d3d3d3" stroke="#000000" points="101.4516,-380 -.1508,-380 -.1508,-360 101.4516,-360 101.4516,-380"/>
<text text-anchor="middle" x="50.6504" y="-366.4" font-family="Times,serif" font-size="12.00" fill="#000000">ExpandBackward</text>
</g>
<!-- 4661424024&#45;&gt;4661420384 -->
<g id="edge10" class="edge">
<title>4661424024&#45;&gt;4661420384</title>
<path fill="none" stroke="#000000" d="M73.7812,-359.9006C97.2988,-349.6324 133.9323,-333.6375 160.3162,-322.1178"/>
<polygon fill="#000000" stroke="#000000" points="161.7655,-325.3041 169.5295,-318.095 158.9644,-318.8889 161.7655,-325.3041"/>
</g>
<!-- 4661422960 -->
<g id="node12" class="node">
<title>4661422960</title>
<polygon fill="#add8e6" stroke="#000000" points="77.6504,-448 23.6504,-448 23.6504,-416 77.6504,-416 77.6504,-448"/>
<text text-anchor="middle" x="50.6504" y="-434.4" font-family="Times,serif" font-size="12.00" fill="#000000">fc1.bias</text>
<text text-anchor="middle" x="50.6504" y="-422.4" font-family="Times,serif" font-size="12.00" fill="#000000"> (256)</text>
</g>
<!-- 4661422960&#45;&gt;4661424024 -->
<g id="edge11" class="edge">
<title>4661422960&#45;&gt;4661424024</title>
<path fill="none" stroke="#000000" d="M50.6504,-415.7102C50.6504,-408.0144 50.6504,-398.744 50.6504,-390.5691"/>
<polygon fill="#000000" stroke="#000000" points="54.1505,-390.3512 50.6504,-380.3512 47.1505,-390.3513 54.1505,-390.3512"/>
</g>
<!-- 4661421504 -->
<g id="node13" class="node">
<title>4661421504</title>
<polygon fill="#d3d3d3" stroke="#000000" points="265.6113,-380 119.6894,-380 119.6894,-360 265.6113,-360 265.6113,-380"/>
<text text-anchor="middle" x="192.6504" y="-366.4" font-family="Times,serif" font-size="12.00" fill="#000000">ThnnBatchNormBackward</text>
</g>
<!-- 4661421504&#45;&gt;4661420384 -->
<g id="edge12" class="edge">
<title>4661421504&#45;&gt;4661420384</title>
<path fill="none" stroke="#000000" d="M192.6504,-359.762C192.6504,-351.185 192.6504,-338.6836 192.6504,-328.1154"/>
<polygon fill="#000000" stroke="#000000" points="196.1505,-328.0475 192.6504,-318.0475 189.1505,-328.0476 196.1505,-328.0475"/>
</g>
<!-- 4661421056 -->
<g id="node14" class="node">
<title>4661421056</title>
<polygon fill="#add8e6" stroke="#000000" points="178.3114,-448 114.9893,-448 114.9893,-416 178.3114,-416 178.3114,-448"/>
<text text-anchor="middle" x="146.6504" y="-434.4" font-family="Times,serif" font-size="12.00" fill="#000000">bn.weight</text>
<text text-anchor="middle" x="146.6504" y="-422.4" font-family="Times,serif" font-size="12.00" fill="#000000"> (33)</text>
</g>
<!-- 4661421056&#45;&gt;4661421504 -->
<g id="edge13" class="edge">
<title>4661421056&#45;&gt;4661421504</title>
<path fill="none" stroke="#000000" d="M158.7363,-415.7102C164.9003,-407.4022 172.4258,-397.2592 178.8204,-388.6404"/>
<polygon fill="#000000" stroke="#000000" points="181.8228,-390.4677 184.9705,-380.3512 176.2011,-386.2967 181.8228,-390.4677"/>
</g>
<!-- 4661422064 -->
<g id="node15" class="node">
<title>4661422064</title>
<polygon fill="#add8e6" stroke="#000000" points="250.6504,-448 196.6504,-448 196.6504,-416 250.6504,-416 250.6504,-448"/>
<text text-anchor="middle" x="223.6504" y="-434.4" font-family="Times,serif" font-size="12.00" fill="#000000">bn.bias</text>
<text text-anchor="middle" x="223.6504" y="-422.4" font-family="Times,serif" font-size="12.00" fill="#000000"> (33)</text>
</g>
<!-- 4661422064&#45;&gt;4661421504 -->
<g id="edge14" class="edge">
<title>4661422064&#45;&gt;4661421504</title>
<path fill="none" stroke="#000000" d="M215.5055,-415.7102C211.4827,-407.6646 206.5994,-397.898 202.3811,-389.4614"/>
<polygon fill="#000000" stroke="#000000" points="205.4287,-387.7302 197.826,-380.3512 199.1677,-390.8608 205.4287,-387.7302"/>
</g>
<!-- 4661423968 -->
<g id="node16" class="node">
<title>4661423968</title>
<polygon fill="#d3d3d3" stroke="#000000" points="355.625,-380 283.6758,-380 283.6758,-360 355.625,-360 355.625,-380"/>
<text text-anchor="middle" x="319.6504" y="-366.4" font-family="Times,serif" font-size="12.00" fill="#000000">TBackward</text>
</g>
<!-- 4661423968&#45;&gt;4661420384 -->
<g id="edge15" class="edge">
<title>4661423968&#45;&gt;4661420384</title>
<path fill="none" stroke="#000000" d="M298.963,-359.9006C278.2064,-349.7675 246.026,-334.0574 222.5052,-322.5748"/>
<polygon fill="#000000" stroke="#000000" points="223.8507,-319.3369 213.3289,-318.095 220.7798,-325.6273 223.8507,-319.3369"/>
</g>
<!-- 4661423128 -->
<g id="node17" class="node">
<title>4661423128</title>
<polygon fill="#add8e6" stroke="#000000" points="353.1328,-448 286.168,-448 286.168,-416 353.1328,-416 353.1328,-448"/>
<text text-anchor="middle" x="319.6504" y="-434.4" font-family="Times,serif" font-size="12.00" fill="#000000">fc1.weight</text>
<text text-anchor="middle" x="319.6504" y="-422.4" font-family="Times,serif" font-size="12.00" fill="#000000"> (256, 33)</text>
</g>
<!-- 4661423128&#45;&gt;4661423968 -->
<g id="edge16" class="edge">
<title>4661423128&#45;&gt;4661423968</title>
<path fill="none" stroke="#000000" d="M319.6504,-415.7102C319.6504,-408.0144 319.6504,-398.744 319.6504,-390.5691"/>
<polygon fill="#000000" stroke="#000000" points="323.1505,-390.3512 319.6504,-380.3512 316.1505,-390.3513 323.1505,-390.3512"/>
</g>
<!-- 4508984096 -->
<g id="node18" class="node">
<title>4508984096</title>
<polygon fill="#d3d3d3" stroke="#000000" points="344.625,-256 272.6758,-256 272.6758,-236 344.625,-236 344.625,-256"/>
<text text-anchor="middle" x="308.6504" y="-242.4" font-family="Times,serif" font-size="12.00" fill="#000000">TBackward</text>
</g>
<!-- 4508984096&#45;&gt;4508986112 -->
<g id="edge17" class="edge">
<title>4508984096&#45;&gt;4508986112</title>
<path fill="none" stroke="#000000" d="M289.7548,-235.9006C270.9645,-225.8576 241.9246,-210.3362 220.4941,-198.882"/>
<polygon fill="#000000" stroke="#000000" points="222.007,-195.7221 211.5379,-194.095 218.7074,-201.8956 222.007,-195.7221"/>
</g>
<!-- 4661422848 -->
<g id="node19" class="node">
<title>4661422848</title>
<polygon fill="#add8e6" stroke="#000000" points="343.1426,-324 274.1582,-324 274.1582,-292 343.1426,-292 343.1426,-324"/>
<text text-anchor="middle" x="308.6504" y="-310.4" font-family="Times,serif" font-size="12.00" fill="#000000">fc2.weight</text>
<text text-anchor="middle" x="308.6504" y="-298.4" font-family="Times,serif" font-size="12.00" fill="#000000"> (128, 256)</text>
</g>
<!-- 4661422848&#45;&gt;4508984096 -->
<g id="edge18" class="edge">
<title>4661422848&#45;&gt;4508984096</title>
<path fill="none" stroke="#000000" d="M308.6504,-291.7102C308.6504,-284.0144 308.6504,-274.744 308.6504,-266.5691"/>
<polygon fill="#000000" stroke="#000000" points="312.1505,-266.3512 308.6504,-256.3512 305.1505,-266.3513 312.1505,-266.3512"/>
</g>
<!-- 4508986448 -->
<g id="node20" class="node">
<title>4508986448</title>
<polygon fill="#d3d3d3" stroke="#000000" points="344.625,-132 272.6758,-132 272.6758,-112 344.625,-112 344.625,-132"/>
<text text-anchor="middle" x="308.6504" y="-118.4" font-family="Times,serif" font-size="12.00" fill="#000000">TBackward</text>
</g>
<!-- 4508986448&#45;&gt;4508986672 -->
<g id="edge19" class="edge">
<title>4508986448&#45;&gt;4508986672</title>
<path fill="none" stroke="#000000" d="M287.9119,-111.9883C269.7969,-103.2431 243.2722,-90.4381 222.8091,-80.5594"/>
<polygon fill="#000000" stroke="#000000" points="224.1276,-77.3094 213.6004,-76.1138 221.0843,-83.6133 224.1276,-77.3094"/>
</g>
<!-- 4508985552 -->
<g id="node21" class="node">
<title>4508985552</title>
<polygon fill="#add8e6" stroke="#000000" points="342.1328,-200 275.168,-200 275.168,-168 342.1328,-168 342.1328,-200"/>
<text text-anchor="middle" x="308.6504" y="-186.4" font-family="Times,serif" font-size="12.00" fill="#000000">fc3.weight</text>
<text text-anchor="middle" x="308.6504" y="-174.4" font-family="Times,serif" font-size="12.00" fill="#000000"> (4, 128)</text>
</g>
<!-- 4508985552&#45;&gt;4508986448 -->
<g id="edge20" class="edge">
<title>4508985552&#45;&gt;4508986448</title>
<path fill="none" stroke="#000000" d="M308.6504,-167.7102C308.6504,-160.0144 308.6504,-150.744 308.6504,-142.5691"/>
<polygon fill="#000000" stroke="#000000" points="312.1505,-142.3512 308.6504,-132.3512 305.1505,-142.3513 312.1505,-142.3512"/>
</g>
</g>
</svg>
