<?xml version="1.0" encoding="UTF-8" standalone="no"?>
<!DOCTYPE svg PUBLIC "-//W3C//DTD SVG 1.1//EN"
 "http://www.w3.org/Graphics/SVG/1.1/DTD/svg11.dtd">
<!-- Generated by graphviz version 2.40.1 (20161225.0304)
 -->
<!-- Title: %3 Pages: 1 -->
<svg width="364pt" height="580pt"
 viewBox="0.00 0.00 363.64 580.00" xmlns="http://www.w3.org/2000/svg" xmlns:xlink="http://www.w3.org/1999/xlink">
<g id="graph0" class="graph" transform="scale(1 1) rotate(0) translate(4 576)">
<title>%3</title>
<polygon fill="#ffffff" stroke="transparent" points="-4,4 -4,-576 359.6377,-576 359.6377,4 -4,4"/>
<!-- 4508987008 -->
<g id="node1" class="node">
<title>4508987008</title>
<polygon fill="#caff70" stroke="#000000" points="245.6289,-20 141.6719,-20 141.6719,0 245.6289,0 245.6289,-20"/>
<text text-anchor="middle" x="193.6504" y="-6.4" font-family="Times,serif" font-size="12.00" fill="#000000">AddmmBackward</text>
</g>
<!-- 4508985720 -->
<g id="node2" class="node">
<title>4508985720</title>
<polygon fill="#d3d3d3" stroke="#000000" points="114.4516,-76 12.8492,-76 12.8492,-56 114.4516,-56 114.4516,-76"/>
<text text-anchor="middle" x="63.6504" y="-62.4" font-family="Times,serif" font-size="12.00" fill="#000000">ExpandBackward</text>
</g>
<!-- 4508985720&#45;&gt;4508987008 -->
<g id="edge1" class="edge">
<title>4508985720&#45;&gt;4508987008</title>
<path fill="none" stroke="#000000" d="M86.8918,-55.9883C107.4687,-47.1244 137.7278,-34.0897 160.7819,-24.1587"/>
<polygon fill="#000000" stroke="#000000" points="162.3725,-27.2846 170.1719,-20.1138 159.6031,-20.8557 162.3725,-27.2846"/>
</g>
<!-- 4661423856 -->
<g id="node3" class="node">
<title>4661423856</title>
<polygon fill="#add8e6" stroke="#000000" points="90.6504,-144 36.6504,-144 36.6504,-112 90.6504,-112 90.6504,-144"/>
<text text-anchor="middle" x="63.6504" y="-130.4" font-family="Times,serif" font-size="12.00" fill="#000000">fc4.bias</text>
<text text-anchor="middle" x="63.6504" y="-118.4" font-family="Times,serif" font-size="12.00" fill="#000000"> (1)</text>
</g>
<!-- 4661423856&#45;&gt;4508985720 -->
<g id="edge2" class="edge">
<title>4661423856&#45;&gt;4508985720</title>
<path fill="none" stroke="#000000" d="M63.6504,-111.7102C63.6504,-104.0144 63.6504,-94.744 63.6504,-86.5691"/>
<polygon fill="#000000" stroke="#000000" points="67.1505,-86.3512 63.6504,-76.3512 60.1505,-86.3513 67.1505,-86.3512"/>
</g>
<!-- 4661423408 -->
<g id="node4" class="node">
<title>4661423408</title>
<polygon fill="#d3d3d3" stroke="#000000" points="255.4418,-76 131.859,-76 131.859,-56 255.4418,-56 255.4418,-76"/>
<text text-anchor="middle" x="193.6504" y="-62.4" font-family="Times,serif" font-size="12.00" fill="#000000">LeakyReluBackward0</text>
</g>
<!-- 4661423408&#45;&gt;4508987008 -->
<g id="edge3" class="edge">
<title>4661423408&#45;&gt;4508987008</title>
<path fill="none" stroke="#000000" d="M193.6504,-55.9883C193.6504,-48.9098 193.6504,-39.1714 193.6504,-30.4779"/>
<polygon fill="#000000" stroke="#000000" points="197.1505,-30.3038 193.6504,-20.3039 190.1505,-30.3039 197.1505,-30.3038"/>
</g>
<!-- 4661423520 -->
<g id="node5" class="node">
<title>4661423520</title>
<polygon fill="#d3d3d3" stroke="#000000" points="245.6289,-138 141.6719,-138 141.6719,-118 245.6289,-118 245.6289,-138"/>
<text text-anchor="middle" x="193.6504" y="-124.4" font-family="Times,serif" font-size="12.00" fill="#000000">AddmmBackward</text>
</g>
<!-- 4661423520&#45;&gt;4661423408 -->
<g id="edge4" class="edge">
<title>4661423520&#45;&gt;4661423408</title>
<path fill="none" stroke="#000000" d="M193.6504,-117.762C193.6504,-109.185 193.6504,-96.6836 193.6504,-86.1154"/>
<polygon fill="#000000" stroke="#000000" points="197.1505,-86.0475 193.6504,-76.0475 190.1505,-86.0476 197.1505,-86.0475"/>
</g>
<!-- 4661421784 -->
<g id="node6" class="node">
<title>4661421784</title>
<polygon fill="#d3d3d3" stroke="#000000" points="114.4516,-200 12.8492,-200 12.8492,-180 114.4516,-180 114.4516,-200"/>
<text text-anchor="middle" x="63.6504" y="-186.4" font-family="Times,serif" font-size="12.00" fill="#000000">ExpandBackward</text>
</g>
<!-- 4661421784&#45;&gt;4661423520 -->
<g id="edge5" class="edge">
<title>4661421784&#45;&gt;4661423520</title>
<path fill="none" stroke="#000000" d="M84.8265,-179.9006C106.1678,-169.7224 139.307,-153.9176 163.4108,-142.4219"/>
<polygon fill="#000000" stroke="#000000" points="164.964,-145.5589 172.4834,-138.095 161.9507,-139.2407 164.964,-145.5589"/>
</g>
<!-- 4661422568 -->
<g id="node7" class="node">
<title>4661422568</title>
<polygon fill="#add8e6" stroke="#000000" points="90.6504,-268 36.6504,-268 36.6504,-236 90.6504,-236 90.6504,-268"/>
<text text-anchor="middle" x="63.6504" y="-254.4" font-family="Times,serif" font-size="12.00" fill="#000000">fc3.bias</text>
<text text-anchor="middle" x="63.6504" y="-242.4" font-family="Times,serif" font-size="12.00" fill="#000000"> (64)</text>
</g>
<!-- 4661422568&#45;&gt;4661421784 -->
<g id="edge6" class="edge">
<title>4661422568&#45;&gt;4661421784</title>
<path fill="none" stroke="#000000" d="M63.6504,-235.7102C63.6504,-228.0144 63.6504,-218.744 63.6504,-210.5691"/>
<polygon fill="#000000" stroke="#000000" points="67.1505,-210.3512 63.6504,-200.3512 60.1505,-210.3513 67.1505,-210.3512"/>
</g>
<!-- 4661420440 -->
<g id="node8" class="node">
<title>4661420440</title>
<polygon fill="#d3d3d3" stroke="#000000" points="255.4418,-200 131.859,-200 131.859,-180 255.4418,-180 255.4418,-200"/>
<text text-anchor="middle" x="193.6504" y="-186.4" font-family="Times,serif" font-size="12.00" fill="#000000">LeakyReluBackward0</text>
</g>
<!-- 4661420440&#45;&gt;4661423520 -->
<g id="edge7" class="edge">
<title>4661420440&#45;&gt;4661423520</title>
<path fill="none" stroke="#000000" d="M193.6504,-179.762C193.6504,-171.185 193.6504,-158.6836 193.6504,-148.1154"/>
<polygon fill="#000000" stroke="#000000" points="197.1505,-148.0475 193.6504,-138.0475 190.1505,-148.0476 197.1505,-148.0475"/>
</g>
<!-- 4661421000 -->
<g id="node9" class="node">
<title>4661421000</title>
<polygon fill="#d3d3d3" stroke="#000000" points="245.6289,-262 141.6719,-262 141.6719,-242 245.6289,-242 245.6289,-262"/>
<text text-anchor="middle" x="193.6504" y="-248.4" font-family="Times,serif" font-size="12.00" fill="#000000">AddmmBackward</text>
</g>
<!-- 4661421000&#45;&gt;4661420440 -->
<g id="edge8" class="edge">
<title>4661421000&#45;&gt;4661420440</title>
<path fill="none" stroke="#000000" d="M193.6504,-241.762C193.6504,-233.185 193.6504,-220.6836 193.6504,-210.1154"/>
<polygon fill="#000000" stroke="#000000" points="197.1505,-210.0475 193.6504,-200.0475 190.1505,-210.0476 197.1505,-210.0475"/>
</g>
<!-- 4661421504 -->
<g id="node10" class="node">
<title>4661421504</title>
<polygon fill="#d3d3d3" stroke="#000000" points="135.4516,-324 33.8492,-324 33.8492,-304 135.4516,-304 135.4516,-324"/>
<text text-anchor="middle" x="84.6504" y="-310.4" font-family="Times,serif" font-size="12.00" fill="#000000">ExpandBackward</text>
</g>
<!-- 4661421504&#45;&gt;4661421000 -->
<g id="edge9" class="edge">
<title>4661421504&#45;&gt;4661421000</title>
<path fill="none" stroke="#000000" d="M102.6495,-303.762C120.1887,-293.7855 147.0621,-278.4997 167.0643,-267.1224"/>
<polygon fill="#000000" stroke="#000000" points="169.0244,-270.0341 175.9862,-262.0475 165.5634,-263.9495 169.0244,-270.0341"/>
</g>
<!-- 4661420496 -->
<g id="node11" class="node">
<title>4661420496</title>
<polygon fill="#add8e6" stroke="#000000" points="111.6504,-392 57.6504,-392 57.6504,-360 111.6504,-360 111.6504,-392"/>
<text text-anchor="middle" x="84.6504" y="-378.4" font-family="Times,serif" font-size="12.00" fill="#000000">fc2.bias</text>
<text text-anchor="middle" x="84.6504" y="-366.4" font-family="Times,serif" font-size="12.00" fill="#000000"> (128)</text>
</g>
<!-- 4661420496&#45;&gt;4661421504 -->
<g id="edge10" class="edge">
<title>4661420496&#45;&gt;4661421504</title>
<path fill="none" stroke="#000000" d="M84.6504,-359.7102C84.6504,-352.0144 84.6504,-342.744 84.6504,-334.5691"/>
<polygon fill="#000000" stroke="#000000" points="88.1505,-334.3512 84.6504,-324.3512 81.1505,-334.3513 88.1505,-334.3512"/>
</g>
<!-- 4661423968 -->
<g id="node12" class="node">
<title>4661423968</title>
<polygon fill="#d3d3d3" stroke="#000000" points="234.4596,-324 152.8412,-324 152.8412,-304 234.4596,-304 234.4596,-324"/>
<text text-anchor="middle" x="193.6504" y="-310.4" font-family="Times,serif" font-size="12.00" fill="#000000">CatBackward</text>
</g>
<!-- 4661423968&#45;&gt;4661421000 -->
<g id="edge11" class="edge">
<title>4661423968&#45;&gt;4661421000</title>
<path fill="none" stroke="#000000" d="M193.6504,-303.762C193.6504,-295.185 193.6504,-282.6836 193.6504,-272.1154"/>
<polygon fill="#000000" stroke="#000000" points="197.1505,-272.0475 193.6504,-262.0475 190.1505,-272.0476 197.1505,-272.0475"/>
</g>
<!-- 4661421168 -->
<g id="node13" class="node">
<title>4661421168</title>
<polygon fill="#d3d3d3" stroke="#000000" points="254.4418,-386 130.859,-386 130.859,-366 254.4418,-366 254.4418,-386"/>
<text text-anchor="middle" x="192.6504" y="-372.4" font-family="Times,serif" font-size="12.00" fill="#000000">LeakyReluBackward0</text>
</g>
<!-- 4661421168&#45;&gt;4661423968 -->
<g id="edge12" class="edge">
<title>4661421168&#45;&gt;4661423968</title>
<path fill="none" stroke="#000000" d="M192.8155,-365.762C192.9539,-357.185 193.1555,-344.6836 193.3259,-334.1154"/>
<polygon fill="#000000" stroke="#000000" points="196.8265,-334.1027 193.4883,-324.0475 189.8274,-333.9898 196.8265,-334.1027"/>
</g>
<!-- 4661422456 -->
<g id="node14" class="node">
<title>4661422456</title>
<polygon fill="#d3d3d3" stroke="#000000" points="244.6289,-448 140.6719,-448 140.6719,-428 244.6289,-428 244.6289,-448"/>
<text text-anchor="middle" x="192.6504" y="-434.4" font-family="Times,serif" font-size="12.00" fill="#000000">AddmmBackward</text>
</g>
<!-- 4661422456&#45;&gt;4661421168 -->
<g id="edge13" class="edge">
<title>4661422456&#45;&gt;4661421168</title>
<path fill="none" stroke="#000000" d="M192.6504,-427.762C192.6504,-419.185 192.6504,-406.6836 192.6504,-396.1154"/>
<polygon fill="#000000" stroke="#000000" points="196.1505,-396.0475 192.6504,-386.0475 189.1505,-396.0476 196.1505,-396.0475"/>
</g>
<!-- 4661423912 -->
<g id="node15" class="node">
<title>4661423912</title>
<polygon fill="#d3d3d3" stroke="#000000" points="101.4516,-504 -.1508,-504 -.1508,-484 101.4516,-484 101.4516,-504"/>
<text text-anchor="middle" x="50.6504" y="-490.4" font-family="Times,serif" font-size="12.00" fill="#000000">ExpandBackward</text>
</g>
<!-- 4661423912&#45;&gt;4661422456 -->
<g id="edge14" class="edge">
<title>4661423912&#45;&gt;4661422456</title>
<path fill="none" stroke="#000000" d="M76.0371,-483.9883C98.7141,-475.0453 132.1568,-461.8566 157.4205,-451.8935"/>
<polygon fill="#000000" stroke="#000000" points="158.986,-455.0385 167.0047,-448.1138 156.4179,-448.5266 158.986,-455.0385"/>
</g>
<!-- 4661420552 -->
<g id="node16" class="node">
<title>4661420552</title>
<polygon fill="#add8e6" stroke="#000000" points="79.9736,-572 21.3272,-572 21.3272,-540 79.9736,-540 79.9736,-572"/>
<text text-anchor="middle" x="50.6504" y="-558.4" font-family="Times,serif" font-size="12.00" fill="#000000">fcs1.bias</text>
<text text-anchor="middle" x="50.6504" y="-546.4" font-family="Times,serif" font-size="12.00" fill="#000000"> (256)</text>
</g>
<!-- 4661420552&#45;&gt;4661423912 -->
<g id="edge15" class="edge">
<title>4661420552&#45;&gt;4661423912</title>
<path fill="none" stroke="#000000" d="M50.6504,-539.7102C50.6504,-532.0144 50.6504,-522.744 50.6504,-514.5691"/>
<polygon fill="#000000" stroke="#000000" points="54.1505,-514.3512 50.6504,-504.3512 47.1505,-514.3513 54.1505,-514.3512"/>
</g>
<!-- 4661423800 -->
<g id="node17" class="node">
<title>4661423800</title>
<polygon fill="#d3d3d3" stroke="#000000" points="265.6113,-504 119.6894,-504 119.6894,-484 265.6113,-484 265.6113,-504"/>
<text text-anchor="middle" x="192.6504" y="-490.4" font-family="Times,serif" font-size="12.00" fill="#000000">ThnnBatchNormBackward</text>
</g>
<!-- 4661423800&#45;&gt;4661422456 -->
<g id="edge16" class="edge">
<title>4661423800&#45;&gt;4661422456</title>
<path fill="none" stroke="#000000" d="M192.6504,-483.9883C192.6504,-476.9098 192.6504,-467.1714 192.6504,-458.4779"/>
<polygon fill="#000000" stroke="#000000" points="196.1505,-458.3038 192.6504,-448.3039 189.1505,-458.3039 196.1505,-458.3038"/>
</g>
<!-- 4661420272 -->
<g id="node18" class="node">
<title>4661420272</title>
<polygon fill="#add8e6" stroke="#000000" points="177.3114,-572 113.9893,-572 113.9893,-540 177.3114,-540 177.3114,-572"/>
<text text-anchor="middle" x="145.6504" y="-558.4" font-family="Times,serif" font-size="12.00" fill="#000000">bn.weight</text>
<text text-anchor="middle" x="145.6504" y="-546.4" font-family="Times,serif" font-size="12.00" fill="#000000"> (33)</text>
</g>
<!-- 4661420272&#45;&gt;4661423800 -->
<g id="edge17" class="edge">
<title>4661420272&#45;&gt;4661423800</title>
<path fill="none" stroke="#000000" d="M157.9991,-539.7102C164.3634,-531.3148 172.1482,-521.0455 178.7257,-512.3687"/>
<polygon fill="#000000" stroke="#000000" points="181.5516,-514.4347 184.8035,-504.3512 175.9732,-510.2059 181.5516,-514.4347"/>
</g>
<!-- 4661423016 -->
<g id="node19" class="node">
<title>4661423016</title>
<polygon fill="#add8e6" stroke="#000000" points="249.6504,-572 195.6504,-572 195.6504,-540 249.6504,-540 249.6504,-572"/>
<text text-anchor="middle" x="222.6504" y="-558.4" font-family="Times,serif" font-size="12.00" fill="#000000">bn.bias</text>
<text text-anchor="middle" x="222.6504" y="-546.4" font-family="Times,serif" font-size="12.00" fill="#000000"> (33)</text>
</g>
<!-- 4661423016&#45;&gt;4661423800 -->
<g id="edge18" class="edge">
<title>4661423016&#45;&gt;4661423800</title>
<path fill="none" stroke="#000000" d="M214.7682,-539.7102C210.8752,-531.6646 206.1494,-521.898 202.0672,-513.4614"/>
<polygon fill="#000000" stroke="#000000" points="205.1653,-511.8283 197.659,-504.3512 198.8642,-514.8773 205.1653,-511.8283"/>
</g>
<!-- 4661422512 -->
<g id="node20" class="node">
<title>4661422512</title>
<polygon fill="#d3d3d3" stroke="#000000" points="355.625,-504 283.6758,-504 283.6758,-484 355.625,-484 355.625,-504"/>
<text text-anchor="middle" x="319.6504" y="-490.4" font-family="Times,serif" font-size="12.00" fill="#000000">TBackward</text>
</g>
<!-- 4661422512&#45;&gt;4661422456 -->
<g id="edge19" class="edge">
<title>4661422512&#45;&gt;4661422456</title>
<path fill="none" stroke="#000000" d="M296.9453,-483.9883C276.8433,-475.1244 247.2824,-462.0897 224.7604,-452.1587"/>
<polygon fill="#000000" stroke="#000000" points="226.1492,-448.946 215.5871,-448.1138 223.3249,-455.351 226.1492,-448.946"/>
</g>
<!-- 4661423072 -->
<g id="node21" class="node">
<title>4661423072</title>
<polygon fill="#add8e6" stroke="#000000" points="355.3036,-572 283.9972,-572 283.9972,-540 355.3036,-540 355.3036,-572"/>
<text text-anchor="middle" x="319.6504" y="-558.4" font-family="Times,serif" font-size="12.00" fill="#000000">fcs1.weight</text>
<text text-anchor="middle" x="319.6504" y="-546.4" font-family="Times,serif" font-size="12.00" fill="#000000"> (256, 33)</text>
</g>
<!-- 4661423072&#45;&gt;4661422512 -->
<g id="edge20" class="edge">
<title>4661423072&#45;&gt;4661422512</title>
<path fill="none" stroke="#000000" d="M319.6504,-539.7102C319.6504,-532.0144 319.6504,-522.744 319.6504,-514.5691"/>
<polygon fill="#000000" stroke="#000000" points="323.1505,-514.3512 319.6504,-504.3512 316.1505,-514.3513 323.1505,-514.3512"/>
</g>
<!-- 4661422400 -->
<g id="node22" class="node">
<title>4661422400</title>
<polygon fill="#d3d3d3" stroke="#000000" points="333.625,-324 261.6758,-324 261.6758,-304 333.625,-304 333.625,-324"/>
<text text-anchor="middle" x="297.6504" y="-310.4" font-family="Times,serif" font-size="12.00" fill="#000000">TBackward</text>
</g>
<!-- 4661422400&#45;&gt;4661421000 -->
<g id="edge21" class="edge">
<title>4661422400&#45;&gt;4661421000</title>
<path fill="none" stroke="#000000" d="M280.4769,-303.762C263.818,-293.8307 238.3334,-278.638 219.2764,-267.2771"/>
<polygon fill="#000000" stroke="#000000" points="220.886,-264.1619 210.5043,-262.0475 217.3016,-270.1745 220.886,-264.1619"/>
</g>
<!-- 4661421728 -->
<g id="node23" class="node">
<title>4661421728</title>
<polygon fill="#add8e6" stroke="#000000" points="341.1426,-392 272.1582,-392 272.1582,-360 341.1426,-360 341.1426,-392"/>
<text text-anchor="middle" x="306.6504" y="-378.4" font-family="Times,serif" font-size="12.00" fill="#000000">fc2.weight</text>
<text text-anchor="middle" x="306.6504" y="-366.4" font-family="Times,serif" font-size="12.00" fill="#000000"> (128, 260)</text>
</g>
<!-- 4661421728&#45;&gt;4661422400 -->
<g id="edge22" class="edge">
<title>4661421728&#45;&gt;4661422400</title>
<path fill="none" stroke="#000000" d="M304.2857,-359.7102C303.1559,-351.9269 301.7923,-342.5331 300.5958,-334.2908"/>
<polygon fill="#000000" stroke="#000000" points="304.0533,-333.7447 299.153,-324.3512 297.1259,-334.7503 304.0533,-333.7447"/>
</g>
<!-- 4661422120 -->
<g id="node24" class="node">
<title>4661422120</title>
<polygon fill="#d3d3d3" stroke="#000000" points="345.625,-200 273.6758,-200 273.6758,-180 345.625,-180 345.625,-200"/>
<text text-anchor="middle" x="309.6504" y="-186.4" font-family="Times,serif" font-size="12.00" fill="#000000">TBackward</text>
</g>
<!-- 4661422120&#45;&gt;4661423520 -->
<g id="edge23" class="edge">
<title>4661422120&#45;&gt;4661423520</title>
<path fill="none" stroke="#000000" d="M290.7548,-179.9006C271.9645,-169.8576 242.9246,-154.3362 221.4941,-142.882"/>
<polygon fill="#000000" stroke="#000000" points="223.007,-139.7221 212.5379,-138.095 219.7074,-145.8956 223.007,-139.7221"/>
</g>
<!-- 4661420216 -->
<g id="node25" class="node">
<title>4661420216</title>
<polygon fill="#add8e6" stroke="#000000" points="343.1328,-268 276.168,-268 276.168,-236 343.1328,-236 343.1328,-268"/>
<text text-anchor="middle" x="309.6504" y="-254.4" font-family="Times,serif" font-size="12.00" fill="#000000">fc3.weight</text>
<text text-anchor="middle" x="309.6504" y="-242.4" font-family="Times,serif" font-size="12.00" fill="#000000"> (64, 128)</text>
</g>
<!-- 4661420216&#45;&gt;4661422120 -->
<g id="edge24" class="edge">
<title>4661420216&#45;&gt;4661422120</title>
<path fill="none" stroke="#000000" d="M309.6504,-235.7102C309.6504,-228.0144 309.6504,-218.744 309.6504,-210.5691"/>
<polygon fill="#000000" stroke="#000000" points="313.1505,-210.3512 309.6504,-200.3512 306.1505,-210.3513 313.1505,-210.3512"/>
</g>
<!-- 4661421112 -->
<g id="node26" class="node">
<title>4661421112</title>
<polygon fill="#d3d3d3" stroke="#000000" points="345.625,-76 273.6758,-76 273.6758,-56 345.625,-56 345.625,-76"/>
<text text-anchor="middle" x="309.6504" y="-62.4" font-family="Times,serif" font-size="12.00" fill="#000000">TBackward</text>
</g>
<!-- 4661421112&#45;&gt;4508987008 -->
<g id="edge25" class="edge">
<title>4661421112&#45;&gt;4508987008</title>
<path fill="none" stroke="#000000" d="M288.9119,-55.9883C270.7969,-47.2431 244.2722,-34.4381 223.8091,-24.5594"/>
<polygon fill="#000000" stroke="#000000" points="225.1276,-21.3094 214.6004,-20.1138 222.0843,-27.6133 225.1276,-21.3094"/>
</g>
<!-- 4661421616 -->
<g id="node27" class="node">
<title>4661421616</title>
<polygon fill="#add8e6" stroke="#000000" points="343.1328,-144 276.168,-144 276.168,-112 343.1328,-112 343.1328,-144"/>
<text text-anchor="middle" x="309.6504" y="-130.4" font-family="Times,serif" font-size="12.00" fill="#000000">fc4.weight</text>
<text text-anchor="middle" x="309.6504" y="-118.4" font-family="Times,serif" font-size="12.00" fill="#000000"> (1, 64)</text>
</g>
<!-- 4661421616&#45;&gt;4661421112 -->
<g id="edge26" class="edge">
<title>4661421616&#45;&gt;4661421112</title>
<path fill="none" stroke="#000000" d="M309.6504,-111.7102C309.6504,-104.0144 309.6504,-94.744 309.6504,-86.5691"/>
<polygon fill="#000000" stroke="#000000" points="313.1505,-86.3512 309.6504,-76.3512 306.1505,-86.3513 313.1505,-86.3512"/>
</g>
</g>
</svg>
